<svg width="931" height="615" viewBox="0 0 931 615" fill="none" xmlns="http://www.w3.org/2000/svg">
  <rect width="931" height="615" fill="#FBEEEE" />
  <rect width="763.989" height="99.9904" rx="49.9952" transform="matrix(0.86601 0.500028 3.18907e-05 1 203.232 86.9868)"
    fill="#D9D9D9" />
  <rect width="255.975" height="89.9914" rx="44.9957" transform="matrix(0.866009 0.500028 3.18609e-05 1 313.729 199.99)"
    fill="white" />
  <path
    d="M138.123 211.592L138.122 176.683L141.783 178.796L141.784 209.956L155.837 218.07L155.837 221.82L138.123 211.592ZM167.705 229.286C166.268 228.456 164.964 227.391 163.793 226.09C162.622 224.777 161.692 223.325 161.003 221.735C160.314 220.132 159.97 218.479 159.97 216.774C159.97 215.274 160.226 214.206 160.737 213.57C161.249 212.922 161.933 212.578 162.789 212.539C163.645 212.499 164.59 212.647 165.623 212.982C166.666 213.311 167.714 213.701 168.767 214.15C170.145 214.741 171.262 215.232 172.118 215.624C172.984 216.011 173.614 216.187 174.008 216.153C174.411 216.124 174.613 215.786 174.613 215.138L174.613 215.002C174.613 213.32 174.214 211.783 173.417 210.391C172.63 209.005 171.434 207.849 169.83 206.922C168.167 205.962 166.863 205.63 165.918 205.925C164.974 206.22 164.309 206.735 163.926 207.468L160.619 204.195C161.209 202.945 161.997 202.161 162.981 201.843C163.975 201.519 165.057 201.519 166.228 201.843C167.409 202.161 168.57 202.65 169.712 203.309C170.44 203.729 171.277 204.314 172.221 205.064C173.176 205.809 174.096 206.743 174.982 207.869C175.877 208.999 176.62 210.354 177.211 211.934C177.801 213.514 178.097 215.343 178.097 217.423L178.097 234.673L174.614 232.661L174.613 229.116L174.436 229.013C174.2 229.445 173.806 229.826 173.255 230.155C172.704 230.485 171.971 230.613 171.056 230.539C170.141 230.465 169.024 230.047 167.705 229.286ZM168.236 225.979C169.614 226.775 170.775 227.133 171.72 227.053C172.675 226.979 173.393 226.587 173.875 225.877C174.367 225.172 174.613 224.275 174.613 223.184L174.613 219.502C174.465 219.621 174.141 219.621 173.639 219.502C173.147 219.377 172.576 219.189 171.927 218.939C171.287 218.684 170.662 218.425 170.052 218.164C169.452 217.897 168.964 217.684 168.59 217.525C167.685 217.138 166.839 216.871 166.051 216.723C165.274 216.57 164.644 216.655 164.162 216.979C163.69 217.297 163.454 217.968 163.454 218.99C163.454 220.388 163.901 221.703 164.797 222.936C165.702 224.164 166.849 225.178 168.236 225.979ZM184.928 238.617L184.927 203.708L188.411 205.719L188.411 218.605L188.706 218.776C188.962 218.469 189.316 218.094 189.769 217.651C190.232 217.202 190.891 216.946 191.747 216.884C192.613 216.816 193.784 217.208 195.26 218.06C197.17 219.163 198.852 220.685 200.309 222.629C201.765 224.572 202.902 226.791 203.719 229.285C204.536 231.779 204.944 234.401 204.944 237.151C204.944 239.924 204.536 242.092 203.719 243.654C202.903 245.205 201.771 246.12 200.324 246.398C198.878 246.665 197.21 246.253 195.32 245.162C193.864 244.322 192.698 243.37 191.822 242.307C190.946 241.233 190.272 240.202 189.799 239.213C189.327 238.213 188.963 237.401 188.707 236.776L188.294 236.537L188.294 240.56L184.928 238.617ZM188.352 227.503C188.352 229.48 188.603 231.37 189.105 233.171C189.607 234.961 190.341 236.56 191.305 237.969C192.269 239.367 193.45 240.469 194.848 241.276C196.304 242.117 197.52 242.376 198.494 242.052C199.478 241.722 200.216 240.944 200.708 239.717C201.21 238.484 201.461 236.935 201.461 235.072C201.461 233.231 201.214 231.43 200.722 229.668C200.24 227.901 199.507 226.302 198.523 224.87C197.549 223.432 196.323 222.288 194.847 221.435C193.43 220.617 192.239 220.344 191.275 220.617C190.31 220.878 189.582 221.605 189.09 222.799C188.598 223.98 188.352 225.549 188.352 227.503ZM219.78 259.285C217.595 258.024 215.711 256.379 214.126 254.351C212.552 252.316 211.336 250.047 210.48 247.541C209.634 245.029 209.211 242.433 209.21 239.751C209.21 237.069 209.633 234.95 210.48 233.393C211.336 231.831 212.527 230.916 214.052 230.649C215.587 230.376 217.378 230.831 219.425 232.013C220.606 232.695 221.772 233.595 222.923 234.715C224.075 235.834 225.123 237.178 226.068 238.746C227.013 240.303 227.765 242.078 228.326 244.073C228.887 246.067 229.168 248.286 229.168 250.729L229.168 252.433L211.69 242.342L211.69 238.865L225.625 246.911C225.625 245.433 225.369 243.967 224.857 242.513C224.356 241.064 223.637 239.734 222.702 238.524C221.777 237.32 220.685 236.354 219.425 235.626C218.037 234.825 216.837 234.53 215.823 234.74C214.82 234.944 214.047 235.521 213.506 236.47C212.965 237.419 212.694 238.615 212.694 240.058L212.694 242.376C212.694 244.353 212.99 246.2 213.58 247.916C214.18 249.626 215.012 251.146 216.075 252.476C217.138 253.794 218.373 254.859 219.78 255.672C220.695 256.2 221.522 256.53 222.26 256.661C223.008 256.786 223.652 256.703 224.194 256.413C224.735 256.112 225.153 255.592 225.448 254.854L228.814 257.888C228.46 259.002 227.864 259.817 227.028 260.334C226.191 260.84 225.158 261.016 223.928 260.862C222.698 260.697 221.315 260.172 219.78 259.285ZM237.95 234.323L237.952 269.232L234.468 267.221L234.467 232.311L237.95 234.323Z"
    fill="black" />
  <path
    d="M336.42 326.087L336.419 291.178L340.08 293.292L340.081 324.451L354.134 332.565L354.134 336.315L336.42 326.087ZM366.002 343.781C364.565 342.952 363.262 341.886 362.09 340.585C360.919 339.273 359.989 337.821 359.3 336.23C358.612 334.628 358.267 332.974 358.267 331.27C358.267 329.77 358.523 328.701 359.034 328.065C359.546 327.417 360.23 327.074 361.086 327.034C361.942 326.994 362.887 327.142 363.92 327.477C364.964 327.807 366.012 328.196 367.065 328.645C368.442 329.236 369.559 329.727 370.415 330.119C371.281 330.506 371.911 330.682 372.305 330.648C372.708 330.62 372.91 330.281 372.91 329.634L372.91 329.497C372.91 327.816 372.511 326.279 371.714 324.887C370.927 323.5 369.731 322.344 368.127 321.418C366.464 320.457 365.16 320.125 364.215 320.42C363.271 320.716 362.606 321.23 362.223 321.963L358.916 318.69C359.506 317.44 360.294 316.656 361.278 316.338C362.272 316.014 363.354 316.014 364.525 316.338C365.706 316.656 366.867 317.145 368.009 317.804C368.737 318.225 369.574 318.81 370.518 319.56C371.473 320.304 372.393 321.239 373.279 322.364C374.174 323.495 374.917 324.85 375.508 326.429C376.098 328.009 376.394 329.838 376.394 331.918L376.394 349.168L372.911 347.156L372.911 343.611L372.733 343.509C372.497 343.941 372.104 344.321 371.553 344.651C371.001 344.98 370.268 345.108 369.353 345.034C368.438 344.96 367.321 344.543 366.002 343.781ZM366.534 340.474C367.911 341.27 369.073 341.628 370.017 341.548C370.972 341.475 371.69 341.083 372.172 340.372C372.664 339.668 372.91 338.77 372.91 337.679L372.91 333.997C372.763 334.117 372.438 334.117 371.936 333.997C371.444 333.872 370.873 333.685 370.224 333.435C369.584 333.179 368.959 332.921 368.349 332.659C367.749 332.392 367.262 332.179 366.888 332.02C365.982 331.634 365.136 331.366 364.349 331.219C363.571 331.065 362.941 331.15 362.459 331.474C361.987 331.793 361.751 332.463 361.751 333.486C361.751 334.883 362.199 336.199 363.094 337.432C364 338.659 365.146 339.673 366.534 340.474ZM383.225 353.112L383.224 318.203L386.708 320.214L386.708 333.101L387.004 333.271C387.259 332.964 387.614 332.589 388.066 332.146C388.529 331.697 389.188 331.442 390.044 331.379C390.91 331.311 392.081 331.703 393.558 332.556C395.467 333.658 397.149 335.181 398.606 337.124C400.063 339.067 401.199 341.286 402.016 343.78C402.833 346.275 403.241 348.897 403.241 351.647C403.242 354.42 402.833 356.587 402.017 358.15C401.2 359.701 400.068 360.615 398.622 360.894C397.175 361.161 395.507 360.749 393.617 359.658C392.161 358.817 390.995 357.865 390.119 356.803C389.243 355.729 388.569 354.697 388.097 353.709C387.624 352.709 387.26 351.896 387.004 351.271L386.591 351.033L386.591 355.055L383.225 353.112ZM386.65 341.999C386.65 343.976 386.901 345.865 387.403 347.666C387.904 349.456 388.638 351.055 389.602 352.465C390.567 353.862 391.748 354.965 393.145 355.771C394.601 356.612 395.817 356.871 396.791 356.547C397.775 356.218 398.513 355.439 399.005 354.212C399.507 352.979 399.758 351.431 399.758 349.567C399.758 347.726 399.512 345.925 399.02 344.164C398.537 342.397 397.804 340.797 396.82 339.365C395.846 337.928 394.62 336.783 393.144 335.931C391.727 335.112 390.536 334.84 389.572 335.112C388.608 335.374 387.879 336.101 387.387 337.294C386.895 338.476 386.649 340.044 386.65 341.999ZM418.077 373.781C415.893 372.519 414.008 370.874 412.424 368.846C410.849 366.812 409.634 364.542 408.777 362.036C407.931 359.525 407.508 356.928 407.508 354.246C407.507 351.565 407.931 349.445 408.777 347.888C409.633 346.326 410.824 345.411 412.349 345.144C413.884 344.872 415.675 345.326 417.722 346.508C418.903 347.19 420.069 348.091 421.221 349.21C422.372 350.329 423.42 351.673 424.365 353.241C425.31 354.798 426.063 356.574 426.624 358.568C427.185 360.562 427.465 362.781 427.465 365.224L427.465 366.929L409.988 356.837L409.987 353.36L423.922 361.406C423.922 359.929 423.666 358.463 423.155 357.008C422.653 355.559 421.934 354.23 420.999 353.02C420.074 351.815 418.982 350.849 417.722 350.122C416.335 349.321 415.134 349.025 414.12 349.235C413.117 349.44 412.344 350.016 411.803 350.965C411.262 351.914 410.991 353.11 410.991 354.553L410.991 356.871C410.991 358.849 411.287 360.695 411.877 362.411C412.478 364.122 413.309 365.641 414.372 366.971C415.435 368.289 416.67 369.355 418.077 370.167C418.992 370.696 419.819 371.025 420.557 371.156C421.305 371.281 421.95 371.199 422.491 370.909C423.032 370.608 423.45 370.088 423.745 369.349L427.111 372.383C426.757 373.497 426.162 374.312 425.325 374.829C424.489 375.335 423.455 375.511 422.225 375.358C420.995 375.193 419.612 374.667 418.077 373.781ZM436.248 348.818L436.249 383.727L432.765 381.716L432.764 346.807L436.248 348.818Z"
    fill="black" />
  <path
    d="M534.717 440.582L534.716 405.673L538.377 407.787L538.378 438.946L552.431 447.06L552.431 450.81L534.717 440.582ZM564.299 458.277C562.863 457.447 561.559 456.382 560.388 455.08C559.217 453.768 558.287 452.316 557.598 450.725C556.909 449.123 556.564 447.47 556.564 445.765C556.564 444.265 556.82 443.197 557.332 442.56C557.843 441.913 558.527 441.569 559.383 441.529C560.24 441.49 561.184 441.637 562.218 441.973C563.261 442.302 564.309 442.691 565.362 443.14C566.74 443.731 567.856 444.223 568.713 444.615C569.579 445.001 570.208 445.177 570.602 445.143C571.006 445.115 571.207 444.777 571.207 444.129L571.207 443.993C571.207 442.311 570.809 440.774 570.011 439.382C569.224 437.996 568.028 436.839 566.424 435.913C564.761 434.953 563.457 434.62 562.513 434.916C561.568 435.211 560.904 435.725 560.52 436.458L557.213 433.185C557.804 431.936 558.591 431.151 559.575 430.833C560.569 430.509 561.651 430.509 562.822 430.833C564.003 431.152 565.165 431.64 566.306 432.299C567.034 432.72 567.871 433.305 568.816 434.055C569.77 434.8 570.69 435.734 571.576 436.859C572.472 437.99 573.215 439.345 573.805 440.925C574.396 442.504 574.691 444.334 574.691 446.413L574.692 463.663L571.208 461.652L571.208 458.106L571.031 458.004C570.794 458.436 570.401 458.817 569.85 459.146C569.299 459.476 568.566 459.603 567.65 459.53C566.735 459.456 565.618 459.038 564.299 458.277ZM564.831 454.97C566.209 455.765 567.37 456.123 568.314 456.044C569.269 455.97 569.987 455.578 570.47 454.868C570.962 454.163 571.208 453.265 571.208 452.175L571.207 448.493C571.06 448.612 570.735 448.612 570.233 448.493C569.741 448.368 569.17 448.18 568.521 447.93C567.881 447.674 567.256 447.416 566.646 447.155C566.046 446.887 565.559 446.674 565.185 446.515C564.279 446.129 563.433 445.862 562.646 445.714C561.868 445.561 561.239 445.646 560.756 445.97C560.284 446.288 560.048 446.958 560.048 447.981C560.048 449.379 560.496 450.694 561.391 451.927C562.297 453.154 563.443 454.169 564.831 454.97ZM581.522 467.607L581.521 432.698L585.005 434.71L585.005 447.596L585.301 447.767C585.557 447.46 585.911 447.085 586.363 446.642C586.826 446.193 587.485 445.937 588.341 445.875C589.207 445.807 590.379 446.199 591.855 447.051C593.764 448.153 595.447 449.676 596.903 451.619C598.36 453.563 599.496 455.781 600.313 458.276C601.13 460.77 601.539 463.392 601.539 466.142C601.539 468.915 601.13 471.082 600.314 472.645C599.497 474.196 598.365 475.111 596.919 475.389C595.472 475.656 593.804 475.244 591.915 474.153C590.458 473.312 589.292 472.361 588.416 471.298C587.54 470.224 586.866 469.193 586.394 468.204C585.921 467.204 585.557 466.392 585.301 465.767L584.888 465.528L584.888 469.551L581.522 467.607ZM584.947 456.494C584.947 458.471 585.198 460.36 585.7 462.162C586.202 463.951 586.935 465.551 587.899 466.96C588.864 468.358 590.045 469.46 591.442 470.267C592.899 471.108 594.114 471.366 595.088 471.043C596.072 470.713 596.81 469.935 597.302 468.707C597.804 467.474 598.055 465.926 598.055 464.063C598.055 462.222 597.809 460.42 597.317 458.659C596.834 456.892 596.101 455.293 595.117 453.861C594.143 452.423 592.918 451.278 591.441 450.426C590.024 449.608 588.834 449.335 587.869 449.608C586.905 449.869 586.177 450.596 585.685 451.789C585.193 452.971 584.947 454.539 584.947 456.494ZM616.374 488.276C614.19 487.015 612.305 485.37 610.721 483.341C609.146 481.307 607.931 479.037 607.074 476.532C606.228 474.02 605.805 471.424 605.805 468.742C605.805 466.06 606.228 463.941 607.074 462.384C607.93 460.821 609.121 459.907 610.646 459.64C612.181 459.367 613.972 459.822 616.019 461.003C617.2 461.685 618.366 462.586 619.518 463.705C620.669 464.825 621.717 466.168 622.662 467.737C623.607 469.293 624.36 471.069 624.921 473.063C625.482 475.058 625.762 477.276 625.762 479.72L625.762 481.424L608.285 471.333L608.285 467.855L622.219 475.901C622.219 474.424 621.964 472.958 621.452 471.504C620.95 470.055 620.231 468.725 619.296 467.515C618.371 466.31 617.279 465.344 616.019 464.617C614.632 463.816 613.431 463.52 612.418 463.731C611.414 463.935 610.641 464.512 610.1 465.461C609.559 466.409 609.288 467.605 609.288 469.049L609.288 471.367C609.289 473.344 609.584 475.191 610.174 476.907C610.775 478.617 611.606 480.137 612.669 481.466C613.732 482.785 614.967 483.85 616.374 484.663C617.29 485.191 618.116 485.521 618.854 485.651C619.602 485.776 620.247 485.694 620.788 485.404C621.329 485.103 621.747 484.583 622.043 483.845L625.408 486.879C625.054 487.992 624.459 488.808 623.622 489.325C622.786 489.83 621.753 490.006 620.522 489.853C619.292 489.688 617.91 489.163 616.374 488.276ZM634.545 463.314L634.546 498.223L631.062 496.211L631.061 461.302L634.545 463.314Z"
    fill="black" />
</svg>
